<svg width="16" height="23" viewBox="0 0 16 23" fill="none" xmlns="http://www.w3.org/2000/svg">
<g id="Group 1">
<path id="Vector" d="M4.88477 8.54176C4.88477 9.36172 5.21219 10.1481 5.79502 10.7279C6.37785 11.3077 7.16833 11.6334 7.99258 11.6334C8.81682 11.6334 9.60731 11.3077 10.1901 10.7279C10.773 10.1481 11.1004 9.36172 11.1004 8.54176C11.1004 7.72179 10.773 6.93541 10.1901 6.35561C9.60731 5.7758 8.81682 5.45007 7.99258 5.45007C7.16833 5.45007 6.37785 5.7758 5.79502 6.35561C5.21219 6.93541 4.88477 7.72179 4.88477 8.54176Z" stroke="black" stroke-width="1.5" stroke-linecap="round" stroke-linejoin="round"/>
<path id="Vector_2" d="M7.99258 1.58548C9.84713 1.58548 11.6257 2.31837 12.9371 3.62293C14.2484 4.92748 14.9852 6.69684 14.9852 8.54176C14.9852 11.8921 9.66873 19.3905 8.3075 21.2558C8.27123 21.305 8.22381 21.345 8.1691 21.3726C8.11439 21.4002 8.05391 21.4145 7.99258 21.4145C7.93124 21.4145 7.87077 21.4002 7.81606 21.3726C7.76134 21.345 7.71393 21.305 7.67765 21.2558C6.31643 19.3905 1 11.8921 1 8.54176C1 6.69684 1.73672 4.92748 3.04808 3.62293C4.35944 2.31837 6.13803 1.58548 7.99258 1.58548Z" stroke="black" stroke-width="1.5" stroke-linecap="round" stroke-linejoin="round"/>
</g>
</svg>
