<svg width="16" height="16" viewBox="0 0 16 16" fill="none" xmlns="http://www.w3.org/2000/svg">
<path d="M4.82303 8.60388L3.0937 2.74284C2.9062 2.18034 3.2812 1.61784 3.8437 1.43034C4.4062 1.24284 4.9687 1.61784 5.1562 2.18034L6.3437 6.74284L7.5312 1.80534C7.6562 1.24284 8.2812 0.867837 8.8437 0.992837C9.4062 1.11784 9.7812 1.74284 9.6562 2.30534L8.54888 6.90069" stroke="white" stroke-miterlimit="10" stroke-linecap="round" stroke-linejoin="round"/>
<path d="M9.59387 10.4495C8.96887 10.4495 8.46887 9.9495 8.46887 9.3245V7.3245C8.46887 6.69952 8.96887 6.19952 9.59387 6.19952C10.2189 6.19952 10.7189 6.69952 10.7189 7.3245V9.3245C10.7189 10.012 10.2189 10.4495 9.59387 10.4495Z" stroke="white" stroke-miterlimit="10" stroke-linecap="round" stroke-linejoin="round"/>
<path d="M11.8438 10.012C11.2188 10.012 10.7188 9.512 10.7188 8.887V7.9495C10.7188 7.3245 11.2188 6.8245 11.8438 6.8245C12.4688 6.8245 12.9688 7.3245 12.9688 7.9495V8.887C12.9688 9.512 12.4688 10.012 11.8438 10.012Z" stroke="white" stroke-miterlimit="10" stroke-linecap="round" stroke-linejoin="round"/>
<path d="M12.9688 9.03125V11.2812C12.9688 13.3438 11.2813 15.0312 9.21876 15.0312H6.90626C6.21875 15.0312 5.53125 14.8438 4.96875 14.4688L4.84375 14.4062C3.71875 13.7188 3.03125 12.5312 3.03125 11.2188V10.9062C3.03125 9.65625 4.03125 8.65625 5.28125 8.65625H7.53126C8.03126 8.65625 8.40626 9.03125 8.40626 9.53125C8.40626 9.84375 8.21876 10.1562 7.90626 10.3438L5.71875 11.2812" stroke="white" stroke-miterlimit="10" stroke-linecap="round" stroke-linejoin="round"/>
</svg>
