<svg width="22" height="23" viewBox="0 0 22 23" fill="none" xmlns="http://www.w3.org/2000/svg">
<path d="M1.63384 12.7196C2.05208 13.7037 2.66005 14.5958 3.42305 15.3449C4.18605 16.0941 5.08914 16.6856 6.08075 17.0857C7.07235 17.4859 8.13306 17.6868 9.20231 17.677C10.2716 17.6672 11.3284 17.4469 12.3125 17.0286C13.2966 16.6104 14.1887 16.0024 14.9379 15.2394C15.687 14.4764 16.2785 13.5733 16.6787 12.5817C17.0788 11.5901 17.2797 10.5294 17.2699 9.46014C17.2601 8.39089 17.0398 7.33404 16.6216 6.34993C16.2033 5.36582 15.5954 4.47372 14.8324 3.72457C14.0694 2.97543 13.1663 2.3839 12.1747 1.98376C11.1831 1.58363 10.1223 1.38273 9.05309 1.39252C7.98384 1.40232 6.92699 1.62263 5.94288 2.04086C4.95877 2.4591 4.06667 3.06708 3.31753 3.83008C2.56838 4.59308 1.97686 5.49617 1.57673 6.48778C1.1766 7.47939 0.975695 8.5401 0.985495 9.60935C0.995295 10.6786 1.2156 11.7354 1.63384 12.7196Z" stroke="black" stroke-width="1.5" stroke-linecap="round" stroke-linejoin="round"/>
<path d="M14.8849 15.2918L21.2 21.6078" stroke="black" stroke-width="1.5" stroke-linecap="round" stroke-linejoin="round"/>
</svg>
